<svg width="1315" height="1296" viewBox="0 0 1315 1296" fill="none" xmlns="http://www.w3.org/2000/svg">
<g filter="url(#filter0_f_1089_52454)">
<path d="M1047.65 649.94C1049.8 594.674 1004.09 564.064 940.717 561.816L756.108 555.267C771.731 508.385 778.985 463.842 780.523 424.366C786.471 271.728 743.616 238.584 705.041 237.216C680.243 236.336 660.853 238.283 635.542 250.562C627.071 255.532 624.11 260.698 621.047 268.495L587.955 409.629C554.775 482.241 477.816 545.394 415.455 587.982L400.79 964.314C422.832 965.096 444.465 976.405 471.506 990.541C501.302 1004.77 530.996 1021.64 564.06 1022.81L825.82 1032.1C880.927 1034.05 923.898 993.413 925.334 956.569C925.642 948.674 925.847 943.411 923.297 938.05C956.874 926.064 982.697 900.627 984.031 866.415C984.646 850.625 982.403 837.369 977.406 824.015C999.961 811.638 1020.17 788.637 1021.2 762.321C1021.81 746.53 1014.16 730.447 1006.41 716.995C1029.07 701.987 1046.62 676.257 1047.65 649.94V649.94ZM989.787 647.887C988.454 682.099 952.532 683.46 946.406 699.055C940.177 717.281 967.526 723.522 966.295 755.102C965.064 786.682 923.734 785.216 917.505 803.443C911.174 824.301 930.257 830.248 929.026 861.828L928.821 867.092C922.285 893.213 880.852 894.379 872.175 904.612C863.396 917.477 871.457 923.034 870.329 951.983C869.714 967.773 850.016 977.615 827.973 976.833L566.214 967.547C544.171 966.765 522.538 955.456 495.497 941.32C473.865 930.012 452.232 918.703 430.394 912.658L441.163 636.33C511.995 588.772 603.038 518.212 639.692 427.276L639.897 422.013L669.823 291.308C680.947 289.068 689.213 289.361 702.99 289.849C708.501 290.045 729.313 322.407 725.416 422.411C723.878 461.887 713.971 503.701 698.245 553.214L692.735 553.018C676.202 552.432 664.771 562.568 664.155 578.358C663.54 594.148 674.151 605.066 690.683 605.652L938.666 614.45C966.22 615.427 990.505 629.465 989.787 647.887Z" fill="#1A1A1A"/>
<path d="M371.484 1015.98L205.991 1010.11C175.65 1009.03 151.748 984.5 152.875 955.59L167.214 587.64C168.34 558.73 194.086 535.957 224.426 537.033L389.919 542.904C420.26 543.981 444.162 568.515 443.035 597.425L428.697 965.375C427.57 994.285 401.824 1017.06 371.484 1015.98ZM222.378 589.597L208.039 957.547L373.532 963.418L387.871 595.468L222.378 589.597Z" fill="#1A1A1A"/>
</g>
<path d="M1071.22 499.225C1059.39 466.483 1025.44 458.462 987.895 470.813L878.524 506.791C876.545 476.042 870.232 448.463 861.782 425.076C829.105 334.647 796.226 324.529 773.373 332.047C758.681 336.88 747.818 342.198 735.943 354.826C732.173 359.555 731.667 363.211 731.725 368.425L745.824 457.988C743.643 507.55 713.653 561.027 687.318 599.346L767.882 822.3C780.941 818.004 796.254 819.945 815.395 822.371C836.168 824.259 857.505 827.707 877.094 821.263L1032.17 770.25C1064.82 759.51 1080.29 726.509 1072.4 704.681C1070.71 700.004 1069.59 696.886 1066.83 694.304C1083.6 680.065 1092.66 659.641 1085.33 639.372C1081.95 630.017 1077.5 622.759 1071.42 616.037C1081.66 603.946 1088.02 586.155 1082.39 570.563C1079.01 561.209 1070.73 553.465 1063.01 547.28C1072.69 533.629 1076.85 514.816 1071.22 499.225V499.225ZM1036.94 510.502C1044.26 530.77 1023.6 539.31 1023.72 549.739C1024.4 561.727 1041.85 559.475 1048.61 578.185C1055.37 596.894 1030.89 604.949 1031.56 616.937C1032.81 630.484 1045.36 629.843 1052.12 648.553L1053.25 651.671C1055.62 668.336 1031.69 677.95 1029.05 685.798C1026.97 695.204 1032.99 696.712 1039.19 713.862C1042.57 723.217 1033.4 733.212 1020.34 737.508L865.263 788.522C852.203 792.818 836.891 790.877 817.75 788.451C802.437 786.511 787.124 784.57 772.938 785.748L713.783 622.04C743.888 578.992 780.35 518.153 780.22 457.14L779.093 454.021L765.615 371.232C771.581 367.525 776.478 365.914 784.64 363.229C787.905 362.155 807.725 376.569 829.134 435.816C837.585 459.202 841.702 485.759 844.244 518.068L840.979 519.142C831.185 522.364 826.909 530.748 830.289 540.103C833.67 549.457 842.453 553.546 852.247 550.324L999.162 501.995C1015.49 496.625 1032.99 499.588 1036.94 510.502Z" fill="#D8D8D8"/>
<path d="M763.004 858.795L664.959 891.048C646.984 896.961 627.213 887.785 621.024 870.657L542.254 652.669C536.065 635.541 545.708 616.689 563.683 610.776L661.728 578.524C679.703 572.611 699.473 581.786 705.662 598.914L784.432 816.903C790.622 834.03 780.979 852.882 763.004 858.795ZM574.936 641.918L653.706 859.906L751.751 827.654L672.981 609.665L574.936 641.918Z" fill="#D8D8D8"/>
<defs>
<filter id="filter0_f_1089_52454" x="137.837" y="222.032" width="924.886" height="825.134" filterUnits="userSpaceOnUse" color-interpolation-filters="sRGB">
<feFlood flood-opacity="0" result="BackgroundImageFix"/>
<feBlend mode="normal" in="SourceGraphic" in2="BackgroundImageFix" result="shape"/>
<feGaussianBlur stdDeviation="7.5" result="effect1_foregroundBlur_1089_52454"/>
</filter>
</defs>
</svg>
