<svg width="637" height="613" viewBox="0 0 637 613" fill="none" xmlns="http://www.w3.org/2000/svg">
<path d="M557.651 484.633C599.088 453.72 624.014 410.982 626.654 365.456C629.46 317.073 607.841 270.597 565.778 234.581C524.84 199.54 469.179 178.563 409.041 175.519C348.903 172.475 291.142 187.71 246.397 218.417C200.416 249.973 173.548 293.995 170.742 342.378C167.937 390.761 189.556 437.238 231.618 473.253C272.55 508.297 328.211 529.272 388.349 532.317C396.362 532.722 404.444 532.8 412.477 532.548L425.495 544.3C470.342 584.778 529.304 608.797 591.569 611.951L612.292 613L614.682 571.788L608.941 565.812C586.3 542.165 568.871 514.579 557.651 484.633ZM454.337 516.41L428.216 492.829L419.017 493.413C409.555 494.011 400.064 494.071 390.595 493.592C287.757 488.387 207.722 421.493 212.188 344.476C216.655 267.459 303.958 209.035 406.795 214.241C509.633 219.446 589.668 286.34 585.202 363.358C582.977 401.729 560.409 436.514 521.657 461.306L509.225 469.258L513.888 484.1C523.449 514.414 538.429 542.999 558.193 568.646C519.089 560.495 483.151 542.419 454.337 516.41Z" fill="white"/>
<path d="M59.6563 368.213C80.3877 346.221 97.1152 321.192 109.17 294.126L115.477 279.892L104.049 270.726C70.4238 243.763 53.0619 208.979 55.161 172.783C59.3791 100.048 141.832 44.8743 238.963 49.791C310.419 53.408 370.214 88.5555 395.154 135.842C400.293 135.869 405.448 135.998 410.619 136.26C421.004 136.786 431.267 137.778 441.407 139.237C432.24 112.844 415.084 88.3063 390.751 67.4472C351.693 33.9606 298.591 13.9192 241.212 11.0147C183.833 8.11026 128.725 22.6742 86.0199 52.022C42.0782 82.2211 16.3997 124.363 13.7133 170.684C11.1975 214.065 29.9532 256.937 65.5596 290.274C51.7499 317.157 32.4519 341.253 8.75315 361.204L2.35306 366.575L-4.82014e-05 407.15L20.7238 408.199C59.0464 410.135 97.3259 403.699 132.533 389.401C129.547 375.883 128.137 362.102 128.329 348.299C106.863 358.653 83.6177 365.394 59.6563 368.213Z" fill="white"/>
</svg>
