<svg width="858" height="1012" viewBox="0 0 858 1012" fill="none" xmlns="http://www.w3.org/2000/svg">
<path d="M147.623 325.848C150.112 321.6 154.528 318.843 159.438 318.474C164.349 318.104 169.128 320.167 172.225 323.995L254.326 425.449C255.908 427.34 258.163 428.543 260.616 428.801C263.069 429.06 265.526 428.354 267.467 426.834L310.41 392.082C312.301 390.501 313.504 388.245 313.763 385.792C314.021 383.339 313.315 380.883 311.796 378.942L311.636 378.744L311.635 378.743L229.694 277.488C226.597 273.66 225.575 268.556 226.961 263.831C228.346 259.106 231.963 255.362 236.637 253.813C267.894 243.458 301.563 242.875 333.159 252.141C364.755 261.407 392.777 280.082 413.49 305.678C434.203 331.273 446.624 362.574 449.097 395.407C451.306 424.739 445.484 454.049 432.349 480.222L576.641 658.524C587.813 672.33 593.044 690.009 591.182 707.671C589.319 725.333 580.517 741.533 566.711 752.705L557.275 741.045L566.711 752.705C552.906 763.877 535.227 769.108 517.565 767.246C499.902 765.384 483.703 756.581 472.531 742.776L328.239 564.473C299.903 571.86 270.023 571.443 241.797 563.165C210.201 553.899 182.179 535.224 161.466 509.628C140.753 484.033 128.332 452.733 125.859 419.899C123.386 387.065 130.978 354.258 147.623 325.848Z" stroke="white" stroke-width="30" stroke-linecap="round" stroke-linejoin="round"/>
<g opacity="0.02" filter="url(#filter0_f_1024_52470)">
<path d="M77.107 360.048C77.8663 355.183 80.9652 351 85.3983 348.857C89.8315 346.714 95.0343 346.882 99.3192 349.309L294.433 459.802C294.453 459.814 294.473 459.825 294.493 459.836C300.684 463.24 307.961 464.09 314.771 462.205C321.581 460.319 327.384 455.846 330.942 449.743C330.953 449.723 330.965 449.704 330.976 449.684L377.753 367.082C377.764 367.063 377.775 367.044 377.785 367.024C381.19 360.833 382.042 353.555 380.156 346.744C378.27 339.933 373.796 334.13 367.692 330.572L367.247 330.32L367.247 330.32L172.52 220.047C168.235 217.62 165.414 213.245 164.972 208.341C164.53 203.437 166.523 198.628 170.305 195.474C212.068 160.648 263.453 139.376 317.612 134.494C371.77 129.612 426.131 141.351 473.449 168.147C520.767 194.943 558.795 235.523 582.465 284.48C604.615 330.294 613.208 381.407 607.347 431.812L956.371 629.463C980.435 643.091 998.101 665.72 1005.48 692.373C1012.86 719.025 1009.35 747.518 995.723 771.583C982.095 795.647 959.466 813.313 932.813 820.693C906.161 828.073 877.668 824.563 853.603 810.935L504.58 613.284C464.368 644.236 416.115 663.157 365.433 667.726C311.274 672.608 256.914 660.869 209.596 634.073C162.278 607.277 124.25 566.697 100.58 517.74C76.9098 468.784 68.7218 413.776 77.107 360.048Z" stroke="white" stroke-width="30" stroke-linecap="round" stroke-linejoin="round"/>
</g>
<defs>
<filter id="filter0_f_1024_52470" x="43.9072" y="103.414" width="995.355" height="751.061" filterUnits="userSpaceOnUse" color-interpolation-filters="sRGB">
<feFlood flood-opacity="0" result="BackgroundImageFix"/>
<feBlend mode="normal" in="SourceGraphic" in2="BackgroundImageFix" result="shape"/>
<feGaussianBlur stdDeviation="7.5" result="effect1_foregroundBlur_1024_52470"/>
</filter>
</defs>
</svg>
