<svg width="779" height="779" viewBox="0 0 779 779" fill="none" xmlns="http://www.w3.org/2000/svg">
<g filter="url(#filter0_d_1019_52476)">
<path d="M656.94 279.549L660.163 304.463C667.684 362.863 656.127 422.13 627.213 473.425C598.299 524.72 553.579 565.294 499.722 589.096C445.864 612.898 385.756 618.653 328.36 605.503C270.965 592.352 219.358 561.001 181.237 516.124C143.115 471.248 120.521 415.251 116.825 356.484C113.129 297.718 128.528 239.331 160.726 190.031C192.923 140.732 240.195 103.161 295.49 82.9223C350.785 62.6837 411.141 60.8615 467.557 77.7277" stroke="white" stroke-width="32" stroke-linecap="round" stroke-linejoin="round"/>
<path d="M632.136 87.831L396.406 393.936L304.656 323.207" stroke="white" stroke-width="32" stroke-linecap="round" stroke-linejoin="round"/>
</g>
<defs>
<filter id="filter0_d_1019_52476" x="0.286255" y="0.286133" width="778.114" height="778.114" filterUnits="userSpaceOnUse" color-interpolation-filters="sRGB">
<feFlood flood-opacity="0" result="BackgroundImageFix"/>
<feColorMatrix in="SourceAlpha" type="matrix" values="0 0 0 0 0 0 0 0 0 0 0 0 0 0 0 0 0 0 127 0" result="hardAlpha"/>
<feOffset dy="50"/>
<feGaussianBlur stdDeviation="50"/>
<feColorMatrix type="matrix" values="0 0 0 0 0 0 0 0 0 0 0 0 0 0 0 0 0 0 0.59 0"/>
<feBlend mode="normal" in2="BackgroundImageFix" result="effect1_dropShadow_1019_52476"/>
<feBlend mode="normal" in="SourceGraphic" in2="effect1_dropShadow_1019_52476" result="shape"/>
</filter>
</defs>
</svg>
