<svg width="1039" height="1011" viewBox="0 0 1039 1011" fill="none" xmlns="http://www.w3.org/2000/svg">
<g filter="url(#filter0_f_1089_52464)">
<path d="M76.6023 359.876C77.3617 355.01 80.4605 350.828 84.8937 348.684C89.3269 346.541 94.5297 346.71 98.8145 349.136L293.928 459.63C293.947 459.64 293.966 459.651 293.986 459.661C300.177 463.067 307.455 463.918 314.266 462.032C321.076 460.146 326.879 455.674 330.437 449.571C330.449 449.551 330.46 449.531 330.472 449.511L377.249 366.91C377.26 366.89 377.27 366.87 377.281 366.851C380.686 360.66 381.537 353.383 379.651 346.572C377.765 339.761 373.292 333.958 367.188 330.4L366.742 330.147L366.742 330.147L172.016 219.874C167.731 217.448 164.91 213.073 164.468 208.168C164.026 203.264 166.019 198.455 169.8 195.302C211.563 160.475 262.948 139.204 317.107 134.321C371.266 129.439 425.626 141.178 472.944 167.974C520.262 194.77 558.29 235.351 581.96 284.307C604.111 330.121 612.703 381.235 606.843 431.64L955.866 629.291C979.931 642.918 997.596 665.548 1004.98 692.2C1012.36 718.853 1008.85 747.346 995.218 771.41C981.59 795.475 958.961 813.14 932.309 820.52C905.656 827.9 877.163 824.39 853.099 810.763L504.076 613.111C463.864 644.063 415.611 662.985 364.928 667.554C310.769 672.436 256.409 660.697 209.091 633.901C161.773 607.105 123.745 566.524 100.075 517.568C76.4051 468.611 68.2171 413.604 76.6023 359.876Z" stroke="#1A1A1A" stroke-width="30" stroke-linecap="round" stroke-linejoin="round"/>
</g>
<path d="M147.118 325.676C149.607 321.427 154.023 318.671 158.934 318.301C163.844 317.931 168.623 319.995 171.721 323.822L253.822 425.276C255.403 427.167 257.658 428.37 260.112 428.629C262.564 428.887 265.021 428.181 266.962 426.661L309.906 391.909C311.797 390.328 313 388.072 313.258 385.62C313.517 383.167 312.811 380.71 311.291 378.769L311.131 378.572L311.131 378.571L229.19 277.316C226.092 273.488 225.07 268.383 226.456 263.658C227.842 258.933 231.458 255.189 236.133 253.641C267.389 243.286 301.058 242.703 332.654 251.969C364.25 261.235 392.272 279.91 412.985 305.505C433.698 331.101 446.119 362.401 448.592 395.235C450.802 424.566 444.979 453.877 431.845 480.049L576.136 658.352C587.309 672.158 592.539 689.836 590.677 707.499C588.815 725.161 580.013 741.36 566.207 752.532C552.401 763.705 534.722 768.935 517.06 767.073C499.398 765.211 483.199 756.409 472.026 742.603L327.735 564.301C299.398 571.688 269.518 571.27 241.292 562.992C209.696 553.726 181.675 535.051 160.961 509.456C140.248 483.86 127.827 452.56 125.354 419.726C122.881 386.893 130.473 354.085 147.118 325.676Z" stroke="#D8D8D8" stroke-width="30" stroke-linecap="round" stroke-linejoin="round"/>
<defs>
<filter id="filter0_f_1089_52464" x="43.4023" y="103.241" width="995.355" height="751.061" filterUnits="userSpaceOnUse" color-interpolation-filters="sRGB">
<feFlood flood-opacity="0" result="BackgroundImageFix"/>
<feBlend mode="normal" in="SourceGraphic" in2="BackgroundImageFix" result="shape"/>
<feGaussianBlur stdDeviation="7.5" result="effect1_foregroundBlur_1089_52464"/>
</filter>
</defs>
</svg>
