<svg width="624" height="640" viewBox="0 0 624 640" fill="none" xmlns="http://www.w3.org/2000/svg">
<path d="M540.219 237.225C528.388 204.483 494.44 196.462 456.895 208.813L347.524 244.791C345.545 214.042 339.232 186.463 330.781 163.076C298.105 72.6466 265.226 62.5289 242.372 70.0468C227.681 74.8797 216.818 80.1977 204.943 92.8262C201.173 97.5554 200.667 101.211 200.725 106.425L214.824 195.988C212.642 245.55 182.653 299.027 156.318 337.346L236.882 560.3C249.941 556.004 265.254 557.945 284.395 560.371C305.168 562.259 326.505 565.707 346.094 559.263L501.171 508.25C533.819 497.51 549.29 464.509 541.403 442.681C539.713 438.004 538.586 434.886 535.827 432.304C552.599 418.065 561.656 397.641 554.332 377.372C550.952 368.017 546.502 360.759 540.421 354.037C550.663 341.946 557.019 324.155 551.385 308.563C548.005 299.209 539.727 291.465 532.013 285.28C541.692 271.629 545.853 252.816 540.219 237.225ZM505.938 248.502C513.263 268.77 492.605 277.31 492.72 287.739C493.399 299.727 510.85 297.475 517.611 316.185C524.371 334.894 499.885 342.949 500.564 354.937C501.807 368.484 514.36 367.843 521.121 386.553L522.248 389.671C524.617 406.336 500.694 415.95 498.051 423.798C495.97 433.204 501.994 434.712 508.192 451.862C511.572 461.217 502.399 471.212 489.34 475.508L334.262 526.522C321.203 530.818 305.891 528.877 286.75 526.451C271.437 524.511 256.124 522.57 241.938 523.748L182.782 360.04C212.888 316.992 249.35 256.153 249.22 195.14L248.093 192.021L234.615 109.232C240.581 105.525 245.478 103.914 253.64 101.229C256.905 100.155 276.725 114.569 298.134 173.816C306.584 197.202 310.702 223.759 313.244 256.068L309.979 257.142C300.185 260.364 295.909 268.748 299.289 278.103C302.669 287.457 311.453 291.546 321.247 288.324L468.162 239.995C484.486 234.625 501.995 237.588 505.938 248.502Z" fill="white"/>
<path d="M232.004 596.795L133.959 629.048C115.984 634.961 96.2131 625.785 90.024 608.657L11.2539 390.669C5.06477 373.541 14.7077 354.689 32.6827 348.776L130.728 316.524C148.703 310.611 168.473 319.786 174.662 336.914L253.432 554.903C259.622 572.03 249.979 590.882 232.004 596.795ZM43.9355 379.918L122.706 597.906L220.751 565.654L141.981 347.665L43.9355 379.918Z" fill="white"/>
</svg>
