<svg width="1176" height="925" viewBox="0 0 1176 925" fill="none" xmlns="http://www.w3.org/2000/svg">
<g filter="url(#filter0_f_1086_52494)">
<path d="M842.285 718.961C903.757 673.101 940.735 609.699 944.652 542.16C948.815 470.383 916.742 401.435 854.342 348.005C793.609 296.021 711.035 264.901 621.819 260.385C532.603 255.869 446.914 278.471 380.534 324.025C312.32 370.84 272.462 436.147 268.299 507.924C264.137 579.701 296.209 648.649 358.61 702.079C419.333 754.067 501.907 785.184 591.122 789.701C603.01 790.302 615 790.418 626.917 790.043L646.229 807.478C712.76 867.528 800.231 903.16 892.602 907.839L923.345 909.395L926.891 848.258L918.375 839.392C884.786 804.311 858.929 763.387 842.285 718.961ZM689.016 766.103L650.266 731.12L636.618 731.987C622.582 732.874 608.502 732.962 594.454 732.252C441.893 724.53 323.159 625.292 329.785 511.036C336.411 396.78 465.926 310.107 618.488 317.83C771.049 325.552 889.783 424.79 883.157 539.047C879.855 595.972 846.376 647.576 788.887 684.355L770.444 696.152L777.361 718.17C791.545 763.142 813.768 805.548 843.089 843.596C785.077 831.503 731.762 804.688 689.016 766.103Z" fill="#1A1A1A"/>
</g>
<g filter="url(#filter1_f_1086_52494)">
<path d="M103.501 546.25C134.257 513.625 159.072 476.494 176.956 436.341L186.313 415.225L169.358 401.627C119.475 361.626 93.7184 310.024 96.8325 256.326C103.09 148.423 225.41 66.5717 369.506 73.8657C475.512 79.2316 564.219 131.374 601.218 201.524C608.842 201.563 616.489 201.756 624.16 202.144C639.566 202.924 654.792 204.396 669.835 206.56C656.236 167.406 630.785 131.004 594.686 100.059C536.742 50.3812 457.965 20.6494 372.843 16.3405C287.72 12.0317 205.966 33.6376 142.612 77.1755C77.4241 121.976 39.3295 184.494 35.3442 253.213C31.612 317.57 59.4364 381.17 112.259 430.627C91.7721 470.507 63.1432 506.254 27.9857 535.852L18.4911 543.82L15.0002 604.014L45.7444 605.571C102.597 608.442 159.385 598.894 211.615 577.683C207.185 557.629 205.094 537.184 205.378 516.707C173.533 532.068 139.049 542.068 103.501 546.25V546.25Z" fill="#1A1A1A"/>
</g>
<path d="M1096.65 672.633C1138.09 641.72 1163.01 598.983 1165.65 553.456C1168.46 505.073 1146.84 458.597 1104.78 422.581C1063.84 387.54 1008.18 366.563 948.041 363.519C887.903 360.475 830.142 375.71 785.397 406.417C739.416 437.973 712.548 481.995 709.743 530.379C706.937 578.762 728.556 625.238 770.618 661.254C811.55 696.297 867.211 717.273 927.349 720.317C935.363 720.722 943.444 720.8 951.478 720.548L964.495 732.3C1009.34 772.779 1068.3 796.797 1130.57 799.951L1151.29 801L1153.68 759.789L1147.94 753.812C1125.3 730.165 1107.87 702.579 1096.65 672.633ZM993.337 704.41L967.216 680.829L958.017 681.413C948.556 682.011 939.064 682.071 929.595 681.592C826.757 676.387 746.722 609.493 751.188 532.476C755.655 455.46 842.958 397.035 945.795 402.241C1048.63 407.447 1128.67 474.34 1124.2 551.358C1121.98 589.729 1099.41 624.515 1060.66 649.306L1048.23 657.258L1052.89 672.1C1062.45 702.414 1077.43 730.999 1097.19 756.646C1058.09 748.495 1022.15 730.419 993.337 704.41Z" fill="#D8D8D8"/>
<path d="M598.656 556.213C619.388 534.221 636.115 509.192 648.17 482.126L654.477 467.892L643.049 458.726C609.424 431.763 592.062 396.979 594.161 360.783C598.379 288.048 680.832 232.874 777.963 237.791C849.419 241.408 909.214 276.556 934.154 323.842C939.293 323.869 944.448 323.998 949.619 324.26C960.004 324.786 970.267 325.778 980.407 327.237C971.24 300.844 954.084 276.306 929.751 255.447C890.693 221.961 837.591 201.919 780.212 199.015C722.833 196.11 667.725 210.674 625.02 240.022C581.078 270.221 555.4 312.363 552.713 358.684C550.198 402.065 568.953 444.937 604.56 478.274C590.75 505.157 571.452 529.253 547.753 549.204L541.353 554.575L539 595.15L559.724 596.199C598.046 598.135 636.326 591.699 671.533 577.401C668.547 563.883 667.137 550.102 667.329 536.299C645.863 546.653 622.618 553.394 598.656 556.213V556.213Z" fill="#D8D8D8"/>
<defs>
<filter id="filter0_f_1086_52494" x="252.939" y="244.819" width="707.072" height="679.576" filterUnits="userSpaceOnUse" color-interpolation-filters="sRGB">
<feFlood flood-opacity="0" result="BackgroundImageFix"/>
<feBlend mode="normal" in="SourceGraphic" in2="BackgroundImageFix" result="shape"/>
<feGaussianBlur stdDeviation="7.5" result="effect1_foregroundBlur_1086_52494"/>
</filter>
<filter id="filter1_f_1086_52494" x="0" y="0.800903" width="684.835" height="620.269" filterUnits="userSpaceOnUse" color-interpolation-filters="sRGB">
<feFlood flood-opacity="0" result="BackgroundImageFix"/>
<feBlend mode="normal" in="SourceGraphic" in2="BackgroundImageFix" result="shape"/>
<feGaussianBlur stdDeviation="7.5" result="effect1_foregroundBlur_1086_52494"/>
</filter>
</defs>
</svg>
