<svg width="49" height="48" viewBox="0 0 49 48" fill="none" xmlns="http://www.w3.org/2000/svg">
<g clip-path="url(#clip0_823_52050)">
<path fill-rule="evenodd" clip-rule="evenodd" d="M3.3846 3.368C0.0166016 6.736 0.0166016 12.1584 0.0166016 23V25C0.0166016 35.84 0.0166016 41.264 3.3846 44.632C6.7526 48 12.175 48 23.0166 48H25.0166C35.8566 48 41.2806 48 44.6486 44.632C48.0166 41.264 48.0166 35.8416 48.0166 25V23C48.0166 12.16 48.0166 6.736 44.6486 3.368C41.2806 0 35.8582 0 25.0166 0H23.0166C12.1766 0 6.7526 0 3.3846 3.368ZM9.51738 15H13.0166C13.911 15 14.247 15.392 14.583 16.3616C16.295 21.3472 19.1814 25.7056 20.367 25.7056C20.8134 25.7056 21.0166 25.5008 21.0166 24.3696V19.216C20.9364 17.7489 20.4239 17.1143 20.0442 16.6443C19.8099 16.3541 19.6262 16.1267 19.6262 15.8048C19.6262 15.4128 19.9606 15 20.5158 15H26.0166C26.759 15 27.0166 15.3968 27.0166 16.2864V23.2208C27.0166 23.9616 27.3382 24.2224 27.5606 24.2224C28.0054 24.2224 28.3766 23.9616 29.1926 23.1456C31.7142 20.328 33.4934 15.9904 33.4934 15.9904C33.7158 15.4704 34.127 15 35.0166 15H38.5158C39.575 15 39.799 15.5456 39.575 16.2864C39.1302 18.3264 34.8662 24.3328 34.8662 24.3328C34.495 24.9264 34.3462 25.2224 34.8662 25.8896C35.0497 26.1467 35.4412 26.5304 35.8888 26.9691C36.3466 27.4179 36.8632 27.9242 37.2758 28.4112C38.7798 30.1024 39.9126 31.5296 40.2278 32.512C40.5174 33.4992 40.0166 34 39.0166 34H35.5158C34.5786 34 34.107 33.4751 33.0872 32.34C32.6551 31.859 32.1244 31.2683 31.4182 30.5616C29.3398 28.56 28.4518 28.3008 27.9318 28.3008C27.2278 28.3008 27.0166 28.5008 27.0166 29.5008V32.64C27.0166 33.4992 26.7414 34 24.5158 34C20.8086 34 16.7334 31.7488 13.8422 27.5952C9.50298 21.5152 8.31738 16.9168 8.31738 15.9904C8.31738 15.4704 8.51738 15 9.51738 15Z" fill="black"/>
</g>
<defs>
<clipPath id="clip0_823_52050">
<rect width="48" height="48" fill="white" transform="translate(0.0166016)"/>
</clipPath>
</defs>
</svg>
