<svg width="48" height="48" viewBox="0 0 48 48" fill="none" xmlns="http://www.w3.org/2000/svg">
<path fill-rule="evenodd" clip-rule="evenodd" d="M35.8347 0.171677C32.756 0.0343357 31.8289 0 24.0005 0C16.172 0 15.2449 0.0343357 12.1662 0.171677C9.31634 0.297574 7.7598 0.778271 6.72974 1.17885C5.36777 1.70533 4.39493 2.33481 3.36487 3.36487C2.34625 4.38349 1.70533 5.36777 1.17885 6.72974C0.778269 7.75981 0.297573 9.3049 0.171677 12.1662C0.0343352 15.2449 0 16.172 0 24.0005C0 31.8175 0.0343352 32.7445 0.171677 35.8347C0.297573 38.6846 0.778269 40.2411 1.17885 41.2712C1.70533 42.6332 2.33481 43.606 3.36487 44.636C4.38349 45.6547 5.36777 46.2956 6.72974 46.8221C7.7598 47.2227 9.3049 47.7033 12.1662 47.8292C15.2449 47.9666 16.172 48.0009 24.0005 48.0009C31.8175 48.0009 32.7445 47.9666 35.8347 47.8292C38.6846 47.7033 40.2411 47.2227 41.2712 46.8221C42.6331 46.2956 43.606 45.6661 44.636 44.636C45.6547 43.6174 46.2956 42.6332 46.8221 41.2712C47.2226 40.2411 47.7033 38.696 47.8292 35.8347C47.9666 32.756 48.0009 31.8289 48.0009 24.0005C48.0009 16.1834 47.9666 15.2564 47.8292 12.1662C47.7033 9.31634 47.2226 7.75981 46.8221 6.72974C46.2956 5.36777 45.6661 4.39493 44.636 3.36487C43.6174 2.34625 42.6331 1.70533 41.2712 1.17885C40.2411 0.778271 38.696 0.297574 35.8347 0.171677ZM24.0005 8.97299C15.6913 8.97299 8.9501 15.7142 8.9501 24.0233C8.9501 32.3325 15.6913 39.0737 24.0005 39.0737C32.3096 39.0737 39.0508 32.3325 39.0508 24.0233C39.0508 15.7142 32.3096 8.97299 24.0005 8.97299ZM24.0005 33.786C18.6098 33.786 14.2378 29.414 14.2378 24.0233C14.2378 18.6327 18.6098 14.2606 24.0005 14.2606C29.3911 14.2606 33.7632 18.6327 33.7632 24.0233C33.7632 29.414 29.3911 33.786 24.0005 33.786ZM39.646 11.8914C41.5802 11.8914 43.1596 10.3234 43.1596 8.37774C43.1596 6.44351 41.5802 4.86407 39.646 4.86407C37.7117 4.86407 36.1323 6.43206 36.1323 8.37774C36.1323 10.312 37.7003 11.8914 39.646 11.8914Z" fill="black"/>
</svg>
