<svg width="38" height="38" viewBox="0 0 38 38" fill="none" xmlns="http://www.w3.org/2000/svg">
<path d="M25.2394 21.5489C24.7526 21.0225 24.2059 20.5548 23.6104 20.1554C26.0133 18.2975 27.6972 15.6636 28.375 12.7029C28.425 12.4889 28.4323 12.2672 28.3963 12.0504C28.3603 11.8336 28.2818 11.6261 28.1653 11.4398C28.0488 11.2535 27.8966 11.0921 27.7175 10.9648C27.5384 10.8375 27.3359 10.7469 27.1216 10.6982C26.9073 10.6495 26.6856 10.6436 26.469 10.681C26.2525 10.7183 26.0454 10.7981 25.8599 10.9157C25.6743 11.0333 25.5138 11.1865 25.3876 11.3664C25.2614 11.5463 25.1721 11.7494 25.1247 11.9639C24.809 13.3489 24.195 14.6483 23.3256 15.7716C22.4561 16.8949 21.3521 17.815 20.0905 18.4677V12.3367C20.0802 12.2141 20.0558 12.0931 20.0177 11.976C20.0067 11.8797 19.9874 11.7844 19.9602 11.6913C19.8891 11.5397 19.7953 11.3999 19.6822 11.2765C19.6524 11.2411 19.6373 11.1944 19.6048 11.1616C19.4827 11.0489 19.3444 10.9551 19.1946 10.8832C19.1521 10.8605 19.1205 10.8222 19.0758 10.8032C18.9481 10.7607 18.8158 10.7334 18.6817 10.7221C18.599 10.6979 18.5143 10.6805 18.4287 10.6701L17.3382 10.6667H17.3334C16.9435 10.6649 16.5654 10.8004 16.2655 11.0496C15.9655 11.2987 15.763 11.6456 15.6934 12.0292C15.6237 12.4128 15.6914 12.8087 15.8846 13.1474C16.0778 13.4861 16.3842 13.7459 16.7499 13.8812V22.0323C14.1087 19.2907 12.3599 15.8134 11.7336 12.0584C11.697 11.8426 11.6183 11.6362 11.502 11.4508C11.3857 11.2655 11.234 11.1048 11.0555 10.9781C10.8771 10.8514 10.6755 10.761 10.4621 10.7122C10.2488 10.6634 10.028 10.6571 9.81219 10.6937C9.59642 10.7302 9.38996 10.8089 9.2046 10.9253C9.01924 11.0416 8.85861 11.1933 8.73188 11.3717C8.60516 11.5502 8.51481 11.7518 8.46601 11.9651C8.41721 12.1785 8.4109 12.3993 8.44745 12.6151C9.42144 18.4193 12.6581 23.6002 17.4473 27.021C17.5156 27.0619 17.5868 27.0978 17.6603 27.1284C17.718 27.1623 17.7779 27.1925 17.8394 27.2187C18.0255 27.2931 18.2235 27.3331 18.4239 27.3367C18.669 27.3337 18.9104 27.2757 19.1302 27.167C19.1468 27.1591 19.1658 27.1628 19.1823 27.1545C19.3296 27.0777 19.4645 26.9792 19.5825 26.8623C19.6062 26.8392 19.6221 26.8108 19.6445 26.7864C19.752 26.6683 19.8418 26.5351 19.911 26.3911C19.9342 26.3433 19.9553 26.2976 19.9739 26.2474C20.0472 26.0635 20.0867 25.868 20.0905 25.6701L20.0913 22.1267C21.124 22.43 22.0544 23.009 22.7826 23.8015L25.5292 26.7963C25.6769 26.9582 25.8551 27.0893 26.0536 27.1821C26.2521 27.275 26.467 27.3278 26.6859 27.3375C26.9048 27.3472 27.1235 27.3136 27.3295 27.2387C27.5354 27.1638 27.7245 27.049 27.886 26.9008C28.0475 26.7527 28.1782 26.5742 28.2706 26.3755C28.363 26.1768 28.4153 25.9618 28.4246 25.7429C28.4338 25.5239 28.3997 25.3053 28.3243 25.0995C28.2489 24.8938 28.1337 24.7049 27.9852 24.5437L25.2394 21.5489ZM24.1213 0.666748H13.8959C3.6338 0.666748 0.666687 3.63061 0.666687 13.878V24.1042C0.666687 34.3663 3.62974 37.3334 13.8788 37.3334H24.1042C34.3662 37.3334 37.3334 34.3695 37.3334 24.1221V13.8959C37.3334 3.63386 34.3703 0.666748 24.1213 0.666748ZM34 24.1221C34 32.5222 32.5205 34.0001 24.1042 34.0001H13.8788C5.47707 34.0001 4.00002 32.5206 4.00002 24.1042V13.878C4.00002 5.47795 5.47952 4.00008 13.8959 4.00008H24.1213C32.523 4.00008 34 5.47958 34 13.8959V24.1221Z" fill="white"/>
</svg>
